<svg width="167" height="107" viewBox="0 0 167 107" fill="none" xmlns="http://www.w3.org/2000/svg">
<path fill-rule="evenodd" clip-rule="evenodd" d="M129.335 22.1226C125.785 15.0037 118.515 10.5049 110.56 10.5049H83.0841V15.2954L110.477 15.4113C114.025 15.4263 117.45 16.9711 119.593 19.8133C125.515 27.6651 127.712 33.5641 130.831 41.937L130.871 42.0465C131.417 43.5123 130.342 45.0621 128.779 45.0555L83.0841 44.8621V47.0206L83.0842 89.8978C96.1654 89.8978 120.923 89.3849 136.497 89.0298C144.424 88.849 150.928 82.7218 151.605 74.8217L152.879 59.9508C153.06 57.8315 152.197 55.7569 150.565 54.3923L141.752 47.0206L140.967 45.4467L143.934 44.8944L149.456 44.5525C151.35 44.4353 152.646 42.5922 152.116 40.7707L151.489 38.6184C151.147 37.4438 150.118 36.6006 148.899 36.4965L141.828 35.8929C140.974 35.82 140.13 36.1212 139.514 36.7186L138.784 37.4275C138.273 37.9245 137.96 38.5873 137.898 39.2923L129.335 22.1226ZM139.767 67.7096C140.52 66.2996 139.222 64.6607 137.673 65.0652L118.795 69.9947C114.833 71.0293 111.415 73.5197 109.223 76.9697L107.696 79.3739C107.128 80.2679 107.897 81.417 108.943 81.2379L133.662 77.0071C134.453 76.8717 135.136 76.3799 135.513 75.6734L139.767 67.7096Z" fill="white"/>
<path fill-rule="evenodd" clip-rule="evenodd" d="M37.3791 22.1226C40.9291 15.0037 48.1998 10.5049 56.1547 10.5049H83.6305V15.2954L56.2375 15.4113C52.6895 15.4263 49.2648 16.9711 47.1214 19.8133C41.2 27.6651 39.0028 33.5641 35.884 41.937L35.8433 42.0465C35.2973 43.5123 36.3724 45.0621 37.9354 45.0555L83.6305 44.8621V47.0206L83.6304 89.8978C70.5491 89.8978 45.7914 89.3849 30.2172 89.0298C22.2902 88.849 15.7865 82.7218 15.1097 74.8217L13.8357 59.9508C13.6541 57.8315 14.5176 55.7569 16.1492 54.3923L24.963 47.0206L25.7478 45.4467L22.7805 44.8944L17.2582 44.5525C15.3647 44.4353 14.0688 42.5922 14.599 40.7707L15.2256 38.6184C15.5676 37.4438 16.5969 36.6006 17.8159 36.4965L24.8864 35.8929C25.7408 35.82 26.5849 36.1212 27.2002 36.7186L27.9302 37.4275C28.4421 37.9245 28.755 38.5873 28.8169 39.2923L37.3791 22.1226ZM26.9477 67.7096C26.1947 66.2996 27.4924 64.6607 29.0416 65.0652L47.9198 69.9947C51.8819 71.0293 55.2993 73.5197 57.4912 76.9697L59.0187 79.3739C59.5868 80.2679 58.8178 81.417 57.7713 81.2379L33.0523 77.0071C32.2611 76.8717 31.5784 76.3799 31.2011 75.6734L26.9477 67.7096Z" fill="white"/>
</svg>
