<svg width="24" height="24" viewBox="0 0 24 24" fill="none" xmlns="http://www.w3.org/2000/svg">
<path fill-rule="evenodd" clip-rule="evenodd" d="M6.97814 7C6.97814 6.44772 7.42586 6 7.97814 6H11.2894C11.8417 6 12.2894 6.44772 12.2894 7C12.2894 7.55228 11.8417 8 11.2894 8H10.6338V9.43107H12.8567C13.2163 9.43107 13.5672 9.54188 13.8617 9.74842L14.7769 10.3904L21.041 8.1879C21.5292 8.01623 22.0684 8.06947 22.5136 8.33331L23.4458 8.88568C23.9138 9.16306 24.0743 9.76375 23.8068 10.2375C23.5394 10.7114 22.9422 10.8844 22.4629 10.627L21.8074 10.275L14.3054 16.1932C13.9966 16.4368 13.6148 16.5692 13.2215 16.5692H5.98518C5.4553 16.5692 4.95395 16.3292 4.62176 15.9163L1.27037 11.7513C0.759397 11.1163 0.754482 10.2126 1.25851 9.57203L1.63613 9.09214C2.1189 8.47862 2.94966 8.25908 3.6725 8.554L5.82217 9.43107H8.63381V8H7.97814C7.42586 8 6.97814 7.55228 6.97814 7ZM15.319 12.3198L16.5225 11.8967L13.1348 14.5692H6.68303V11.4311H12.7777L13.7336 12.1016C14.1959 12.4259 14.7863 12.5072 15.319 12.3198ZM4.68303 11.1264L3.09139 10.477L2.95327 10.6525L4.68303 12.8022V11.1264Z" fill="#182230"/>
</svg>
