<svg width="25" height="24" viewBox="0 0 25 24" fill="none" xmlns="http://www.w3.org/2000/svg">
<g clip-path="url(#clip0_7791_3241)">
<path d="M3.45876 8.04349C3.68066 7.83108 4.07159 7.90092 4.38873 7.65811M3.45876 8.04349C3.16339 8.32622 3.15731 8.7991 2.94453 9.14151M3.45876 8.04349C3.64442 7.86576 4.16402 7.8732 4.38873 7.65811M3.45876 8.04349C3.15996 8.32951 3.14788 8.80154 2.94453 9.14151M3.45876 8.04349L2.94453 9.14151M6.10344 16.9208C5.7162 16.8601 5.45169 17.1775 5.10628 16.9666M6.10344 16.9208C6.33767 16.9575 6.74892 17.4631 6.99619 17.4797M6.10344 16.9208L6.99619 17.4797M8.31577 7.02889C8.84244 7.11142 8.92267 6.78302 9.41044 7.02433C9.68215 7.15874 10.0476 7.79429 10.0476 7.79429C10.0476 7.79429 10.8298 7.91567 11.0508 8.14649C11.3137 8.42114 11.3419 8.93622 11.4922 9.37304C11.5944 9.67019 12.2242 9.73391 12.302 10.045C12.3927 10.4078 12.0896 10.896 12.1801 11.205C12.2631 11.4887 12.5823 11.7834 12.6109 12.0378C12.6733 12.5936 12.016 12.8428 12.0619 13.1691C12.1078 13.4954 12.3117 13.8186 12.2175 14.0971C12.0907 14.4719 11.5238 14.6249 11.3138 14.9622C11.1141 15.2829 11.1821 15.7277 10.9033 15.9946C10.6998 16.1893 10.1278 16.0125 9.85561 16.257C9.54939 16.5321 9.45406 17.0667 9.12226 17.1609C8.7306 17.2721 8.36085 16.8671 7.99681 16.9594C7.54329 17.0743 7.45018 17.5101 6.99619 17.4797M8.31577 7.02889C8.05344 6.98778 7.67034 6.65594 7.3815 6.64434M8.31577 7.02889L7.3815 6.64434M7.3815 6.64434C6.97971 6.62819 6.67514 6.90726 6.28115 6.99088M7.3815 6.64434L6.28115 6.99088M6.28115 6.99088C5.8876 7.07441 5.6754 6.7718 5.29075 6.89563M6.28115 6.99088L5.29075 6.89563M5.29075 6.89563C4.98832 6.99299 4.70926 7.41271 4.38873 7.65811M2.94453 9.14151C2.80664 9.36339 2.31792 9.5269 2.19891 9.75427M2.94453 9.14151C2.80862 9.36873 2.44061 9.52291 2.19891 9.75427M2.19891 9.75427C2.00894 10.1172 2.2397 10.3442 2.18243 10.746C2.10185 11.3115 1.62691 11.3388 1.68893 11.8915C1.72086 12.176 2.05264 12.4524 2.15282 12.7936C2.25742 13.1499 1.96608 13.6316 2.12844 13.9949C2.27538 14.3236 2.65353 14.4418 2.83451 14.7325C3.01489 15.0222 2.99801 15.4848 3.19969 15.6954C3.46669 15.9744 3.95275 15.9058 4.28254 16.106M4.28254 16.106C4.63033 16.3172 4.77449 16.764 5.10628 16.9666M4.28254 16.106L5.10628 16.9666" stroke="#182230" stroke-width="2"/>
<path d="M7.49089 17.184L20.5335 17.2177C23.3588 16.796 23.4177 13.1682 21.4595 12.1346C17.1118 10.4999 13.7787 9.44423 10.9093 8.49616" stroke="#182230" stroke-width="2"/>
<path d="M9.5 12C9.5 13.2426 8.49264 14.25 7.25 14.25C6.00736 14.25 5 13.2426 5 12C5 10.7574 6.00736 9.75 7.25 9.75" stroke="#182230" stroke-width="2" stroke-linecap="round"/>
<circle cx="18.5" cy="14.5" r="1.5" fill="#182230"/>
</g>
<defs>
<clipPath id="clip0_7791_3241">
<rect width="24" height="24" fill="white" transform="translate(0.5)"/>
</clipPath>
</defs>
</svg>
