<svg width="25" height="24" viewBox="0 0 25 24" fill="none" xmlns="http://www.w3.org/2000/svg">
<path fill-rule="evenodd" clip-rule="evenodd" d="M18.1987 18.4242C18.5285 18.4073 18.8378 18.3914 19.0044 18.2319C19.2788 17.9693 19.3597 17.6075 19.4414 17.2419C19.5039 16.9626 19.5669 16.681 19.7171 16.4398C19.8813 16.1761 20.1711 15.9772 20.4603 15.7789C20.8131 15.5369 21.1649 15.2957 21.2858 14.9381C21.3907 14.6282 21.2828 14.2864 21.1709 13.9317C21.1082 13.7331 21.0443 13.5305 21.0157 13.3273C20.9809 13.0796 21.1794 12.8576 21.4048 12.6054C21.6949 12.2809 22.0296 11.9065 21.9687 11.3635C21.9421 11.127 21.7709 10.8705 21.5955 10.6076C21.4432 10.3795 21.2878 10.1466 21.2208 9.91786C21.1439 9.65502 21.231 9.3175 21.3213 8.96749C21.4152 8.60324 21.5127 8.22547 21.4324 7.90431C21.3632 7.62735 21.0419 7.46333 20.7214 7.29969C20.417 7.14423 20.1132 6.98911 20.0267 6.73782C19.9419 6.49125 19.8795 6.23032 19.8182 5.97404C19.6909 5.4422 19.5685 4.93042 19.2605 4.6087C18.877 4.20803 17.5191 3.99732 17.5191 3.99732C17.5191 3.99732 16.8848 2.89411 16.4131 2.66078C15.9394 2.42639 15.6871 2.50165 15.3966 2.58831C15.1679 2.65652 14.9156 2.7318 14.5129 2.6687C14.3056 2.6362 14.0547 2.49903 13.7956 2.35737C13.4858 2.18797 13.1642 2.01214 12.8912 2.00117C12.4799 1.98464 12.1273 2.1463 11.767 2.31151C11.5162 2.42648 11.2617 2.54316 10.9811 2.60272C10.6533 2.67231 10.3979 2.58751 10.1472 2.50425C9.87546 2.41402 9.60918 2.32559 9.26193 2.43738C8.9391 2.5413 8.6316 2.85684 8.31327 3.18349C8.11395 3.38802 7.91038 3.59691 7.69613 3.76094C7.41766 3.97415 7.1064 4.04848 6.81692 4.11761C6.53416 4.18514 6.27218 4.24771 6.08184 4.4299C5.78194 4.71698 5.65384 5.11699 5.52526 5.51854C5.43401 5.80349 5.34251 6.08921 5.1892 6.33591C5.07314 6.52268 4.81387 6.68562 4.55402 6.84894C4.278 7.02241 4.00133 7.19629 3.89492 7.39957C3.70317 7.76592 3.75835 8.05245 3.81858 8.36525C3.86194 8.59041 3.90792 8.82918 3.86631 9.12112C3.80145 9.57629 3.58938 9.83061 3.39132 10.0681C3.16226 10.3428 2.95193 10.595 3.00966 11.1095C3.0388 11.3692 3.21179 11.6249 3.3946 11.8951C3.55952 12.1389 3.73244 12.3945 3.81491 12.6755C3.89903 12.962 3.83565 13.2952 3.7714 13.633C3.69695 14.0245 3.62131 14.4222 3.77259 14.7607C3.91161 15.0717 4.16985 15.2742 4.42692 15.4757C4.64152 15.6439 4.85529 15.8115 4.99823 16.0411C5.14258 16.2729 5.21415 16.5686 5.28368 16.8557C5.36496 17.1914 5.44344 17.5155 5.63213 17.7126C5.89451 17.9867 6.27875 18.0675 6.66665 18.1491C6.96396 18.2116 7.26341 18.2746 7.51181 18.4254C7.81757 18.611 8.03266 18.9016 8.24532 19.1889C8.45255 19.4688 8.65746 19.7456 8.94171 19.9192C9.28408 20.1282 9.58066 20.0382 9.89727 19.9422C10.1351 19.87 10.3843 19.7944 10.6726 19.8396C10.8667 19.87 11.1308 20.0859 11.4005 20.3064C11.6959 20.5478 11.998 20.7948 12.2223 20.8098C12.6566 20.8389 12.9006 20.6223 13.1639 20.3885C13.3785 20.198 13.6058 19.9962 13.9593 19.9066C14.2659 19.829 14.5748 19.9545 14.8893 20.0822C15.223 20.2178 15.5629 20.3559 15.9129 20.2565C16.2445 20.1624 16.44 19.8148 16.6477 19.4458C16.8007 19.1737 16.9603 18.89 17.1859 18.6874C17.4353 18.4634 17.8298 18.4431 18.1987 18.4242ZM12.7276 19.4163C17.1543 19.4163 20.7428 15.8278 20.7428 11.4011C20.7428 6.97435 17.1543 3.3858 12.7276 3.3858C8.30088 3.3858 4.71233 6.97435 4.71233 11.4011C4.71233 15.8278 8.30088 19.4163 12.7276 19.4163Z" fill="#182230"/>
<path d="M19.0044 18.2319L19.479 18.7277L19.479 18.7277L19.0044 18.2319ZM18.1987 18.4242L18.1635 17.7388H18.1635L18.1987 18.4242ZM19.4414 17.2419L18.7717 17.0921L18.7717 17.0921L19.4414 17.2419ZM19.7171 16.4398L20.2997 16.8025V16.8025L19.7171 16.4398ZM20.4603 15.7789L20.0721 15.2129V15.2129L20.4603 15.7789ZM21.2858 14.9381L20.6357 14.7182V14.7182L21.2858 14.9381ZM21.1709 13.9317L20.5164 14.1382L20.5164 14.1382L21.1709 13.9317ZM21.0157 13.3273L21.6953 13.2317V13.2317L21.0157 13.3273ZM21.4048 12.6054L21.9164 13.0628V13.0628L21.4048 12.6054ZM21.9687 11.3635L22.6507 11.287L21.9687 11.3635ZM21.5955 10.6076L21.0246 10.9886L21.5955 10.6076ZM21.2208 9.91786L21.8795 9.72507L21.8795 9.72506L21.2208 9.91786ZM21.3213 8.96749L20.6567 8.79604V8.79604L21.3213 8.96749ZM21.4324 7.90431L20.7666 8.07078L20.7666 8.07078L21.4324 7.90431ZM20.7214 7.29969L20.4093 7.91092L20.4093 7.91092L20.7214 7.29969ZM20.0267 6.73782L20.6757 6.51453V6.51453L20.0267 6.73782ZM19.8182 5.97404L20.4856 5.81436V5.81436L19.8182 5.97404ZM19.2605 4.6087L18.7648 5.08328L18.7648 5.08328L19.2605 4.6087ZM17.5191 3.99732L16.9241 4.33941L17.0883 4.625L17.4138 4.67552L17.5191 3.99732ZM16.4131 2.66078L16.1088 3.27592V3.27592L16.4131 2.66078ZM15.3966 2.58831L15.5928 3.24598L15.3966 2.58831ZM14.5129 2.6687L14.6192 1.99066L14.6192 1.99066L14.5129 2.6687ZM13.7956 2.35737L13.4664 2.95954V2.95954L13.7956 2.35737ZM12.8912 2.00117L12.8636 2.68692L12.8912 2.00117ZM11.767 2.31151L12.053 2.93537V2.93537L11.767 2.31151ZM10.9811 2.60272L10.8386 1.93137V1.93137L10.9811 2.60272ZM10.1472 2.50425L9.93088 3.15558V3.15558L10.1472 2.50425ZM9.26193 2.43738L9.05162 1.78408L9.05162 1.78408L9.26193 2.43738ZM8.31327 3.18349L8.80478 3.66248L8.80478 3.66248L8.31327 3.18349ZM7.69613 3.76094L8.11335 4.30587L8.11335 4.30587L7.69613 3.76094ZM6.81692 4.11761L6.65751 3.45008H6.65751L6.81692 4.11761ZM6.08184 4.4299L5.60727 3.93412V3.93412L6.08184 4.4299ZM5.52526 5.51854L6.17887 5.72785V5.72785L5.52526 5.51854ZM5.1892 6.33591L4.60628 5.97366L4.60628 5.97366L5.1892 6.33591ZM4.55402 6.84894L4.18882 6.26786H4.18882L4.55402 6.84894ZM3.89492 7.39957L4.50298 7.71784L4.50298 7.71784L3.89492 7.39957ZM3.81858 8.36525L4.49251 8.23548L3.81858 8.36525ZM3.86631 9.12112L3.18687 9.0243L3.86631 9.12112ZM3.39132 10.0681L3.91841 10.5077H3.91841L3.39132 10.0681ZM3.00966 11.1095L2.32764 11.1861L3.00966 11.1095ZM3.3946 11.8951L2.82614 12.2797H2.82614L3.3946 11.8951ZM3.81491 12.6755L4.47343 12.4822L3.81491 12.6755ZM3.7714 13.633L4.44562 13.7613H4.44562L3.7714 13.633ZM3.77259 14.7607L3.14602 15.0407L3.77259 14.7607ZM4.42692 15.4757L4.85033 14.9355L4.85033 14.9355L4.42692 15.4757ZM4.99823 16.0411L4.41559 16.4038H4.41559L4.99823 16.0411ZM5.28368 16.8557L5.95071 16.6942L5.28368 16.8557ZM5.63213 17.7126L5.13635 18.1872H5.13635L5.63213 17.7126ZM6.66665 18.1491L6.52542 18.8207L6.52543 18.8207L6.66665 18.1491ZM7.51181 18.4254L7.86798 17.8387H7.86798L7.51181 18.4254ZM8.24532 19.1889L8.79694 18.7805H8.79694L8.24532 19.1889ZM8.94171 19.9192L9.29934 19.3334H9.29934L8.94171 19.9192ZM9.89727 19.9422L9.69802 19.2854H9.69802L9.89727 19.9422ZM10.6726 19.8396L10.5664 20.5177L10.6726 19.8396ZM11.4005 20.3064L10.9662 20.8378L11.4005 20.3064ZM12.2223 20.8098L12.1764 21.4946H12.1765L12.2223 20.8098ZM13.1639 20.3885L13.6196 20.9017H13.6196L13.1639 20.3885ZM13.9593 19.9066L14.1278 20.5719H14.1278L13.9593 19.9066ZM14.8893 20.0822L15.1476 19.4464L14.8893 20.0822ZM15.9129 20.2565L15.7255 19.5963H15.7254L15.9129 20.2565ZM16.6477 19.4458L16.0495 19.1092L16.6477 19.4458ZM17.1859 18.6874L16.7273 18.1769L17.1859 18.6874ZM12.8912 2.00117L13.1524 1.36652L12.9223 1.27182L12.685 1.34656L12.8912 2.00117ZM10.9811 2.60272L10.9154 3.28588L11.0542 3.29923L11.1873 3.25733L10.9811 2.60272ZM6.81866 4.13143L6.99125 4.79568L6.81866 4.13143ZM6.08184 4.4299L5.60727 3.93412V3.93412L6.08184 4.4299ZM5.50838 5.54727L6.1618 5.75719L5.50838 5.54727ZM5.1892 6.33591L5.77819 6.68821L5.1892 6.33591ZM4.48467 6.95111L4.09943 6.38313L4.09943 6.38313L4.48467 6.95111ZM18.5299 17.7361C18.5888 17.6797 18.6259 17.6902 18.5368 17.7069C18.4513 17.7228 18.3406 17.7297 18.1635 17.7388L18.2339 19.1096C18.3866 19.1018 18.5954 19.0923 18.7887 19.0562C18.9784 19.0208 19.2534 18.9436 19.479 18.7277L18.5299 17.7361ZM18.7717 17.0921C18.6812 17.4966 18.6297 17.6406 18.5299 17.7361L19.479 18.7277C19.9279 18.298 20.0381 17.7184 20.1112 17.3917L18.7717 17.0921ZM19.1345 16.077C18.9121 16.4342 18.8293 16.8344 18.7717 17.0921L20.1112 17.3917C20.1785 17.0907 20.2217 16.9277 20.2997 16.8025L19.1345 16.077ZM20.0721 15.2129C19.8158 15.3887 19.3895 15.6674 19.1344 16.077L20.2997 16.8025C20.373 16.6847 20.5264 16.5658 20.8485 16.3449L20.0721 15.2129ZM20.6357 14.7182C20.6257 14.7476 20.5957 14.8045 20.4956 14.8965C20.3909 14.9927 20.2573 15.0859 20.0721 15.2129L20.8485 16.3449C21.0161 16.2299 21.2347 16.0815 21.4244 15.9071C21.6186 15.7287 21.8249 15.4861 21.9359 15.1581L20.6357 14.7182ZM20.5164 14.1382C20.5756 14.3259 20.6141 14.452 20.6325 14.5636C20.6497 14.6674 20.6395 14.707 20.6357 14.7182L21.9359 15.1581C22.037 14.8593 22.0253 14.573 21.9868 14.3398C21.9495 14.1143 21.8781 13.8921 21.8254 13.7251L20.5164 14.1382ZM20.3361 13.4228C20.374 13.6924 20.457 13.95 20.5164 14.1382L21.8254 13.7251C21.7594 13.5162 21.7146 13.3686 21.6953 13.2317L20.3361 13.4228ZM20.8931 12.148C20.7917 12.2615 20.6412 12.4267 20.53 12.6053C20.4128 12.7936 20.2874 13.0763 20.3361 13.4228L21.6953 13.2317C21.7092 13.3305 21.6656 13.3784 21.6953 13.3307C21.7095 13.3079 21.7333 13.275 21.7728 13.2273C21.8127 13.1791 21.8582 13.1279 21.9164 13.0628L20.8931 12.148ZM21.2867 11.44C21.3087 11.6362 21.2142 11.7889 20.8931 12.148L21.9164 13.0628C22.1756 12.7729 22.7506 12.1768 22.6507 11.287L21.2867 11.44ZM21.0246 10.9886C21.1166 11.1264 21.1838 11.2281 21.2335 11.3205C21.2844 11.4152 21.2876 11.4484 21.2867 11.44L22.6507 11.287C22.6232 11.0421 22.5275 10.8288 22.4424 10.6704C22.3559 10.5097 22.2498 10.3517 22.1663 10.2266L21.0246 10.9886ZM20.5621 10.1106C20.6646 10.4607 20.8893 10.7859 21.0246 10.9886L22.1663 10.2266C21.9971 9.97309 21.911 9.83259 21.8795 9.72507L20.5621 10.1106ZM20.6567 8.79604C20.6138 8.96253 20.559 9.17189 20.5292 9.37647C20.4996 9.57963 20.4837 9.84258 20.5621 10.1106L21.8795 9.72506C21.881 9.7303 21.8702 9.69307 21.8875 9.57425C21.9046 9.45686 21.9385 9.32245 21.9858 9.13894L20.6567 8.79604ZM20.7666 8.07078C20.7765 8.11039 20.7826 8.18596 20.763 8.32141C20.7432 8.458 20.7056 8.60662 20.6567 8.79604L21.9858 9.13894C22.0309 8.96411 22.089 8.74172 22.1214 8.51807C22.1539 8.29329 22.1686 8.01938 22.0982 7.73784L20.7666 8.07078ZM20.4093 7.91092C20.4917 7.95297 20.5599 7.98788 20.6226 8.02303C20.6849 8.05789 20.7293 8.0862 20.7612 8.10995C20.8324 8.16294 20.7871 8.15282 20.7666 8.07078L22.0982 7.73784C22.0085 7.37884 21.7679 7.14823 21.581 7.00905C21.3967 6.8718 21.1808 6.76361 21.0336 6.68845L20.4093 7.91092ZM19.3778 6.9611C19.4879 7.28128 19.7171 7.48655 19.892 7.61216C20.067 7.73778 20.2685 7.83902 20.4093 7.91092L21.0336 6.68845C20.8699 6.60489 20.7673 6.55084 20.6926 6.49721C20.618 6.44358 20.652 6.44565 20.6757 6.51453L19.3778 6.9611ZM19.1507 6.13372C19.2106 6.38405 19.2803 6.67778 19.3778 6.9611L20.6757 6.51453C20.6035 6.30472 20.5484 6.07658 20.4856 5.81436L19.1507 6.13372ZM18.7648 5.08328C18.8263 5.14762 18.8932 5.25698 18.9619 5.44636C19.0312 5.63782 19.085 5.85927 19.1507 6.13373L20.4856 5.81436C20.4241 5.55697 20.353 5.25662 20.2524 4.9788C20.151 4.6989 20.0027 4.39151 19.7563 4.13413L18.7648 5.08328ZM17.5191 3.99732C17.4138 4.67552 17.4138 4.6755 17.4137 4.67549C17.4137 4.67549 17.4136 4.67548 17.4136 4.67548C17.4135 4.67547 17.4135 4.67546 17.4134 4.67545C17.4134 4.67544 17.4134 4.67545 17.4135 4.67547C17.4137 4.6755 17.4143 4.67558 17.4151 4.67571C17.4168 4.67598 17.4197 4.67644 17.4237 4.67711C17.4318 4.67843 17.4446 4.68055 17.4613 4.68345C17.495 4.68926 17.5446 4.69816 17.6058 4.71011C17.729 4.73415 17.8951 4.76974 18.07 4.81613C18.2473 4.86316 18.4198 4.91769 18.5609 4.97693C18.7189 5.04328 18.7688 5.08754 18.7648 5.08328L19.7563 4.13413C19.5605 3.92953 19.2968 3.7972 19.0923 3.71135C18.8709 3.61839 18.632 3.54512 18.4219 3.48939C18.2094 3.43302 18.0121 3.39089 17.8687 3.36291C17.7966 3.34884 17.7372 3.33815 17.695 3.33087C17.6739 3.32723 17.6571 3.32442 17.6451 3.32247C17.6392 3.32149 17.6344 3.32072 17.6309 3.32017C17.6291 3.31989 17.6277 3.31966 17.6266 3.31949C17.6261 3.3194 17.6256 3.31933 17.6252 3.31927C17.625 3.31924 17.6249 3.31922 17.6247 3.31919C17.6246 3.31918 17.6245 3.31916 17.6245 3.31916C17.6244 3.31914 17.6243 3.31913 17.5191 3.99732ZM16.1088 3.27592C16.1029 3.27302 16.1181 3.28004 16.1546 3.31066C16.1891 3.33968 16.2315 3.38038 16.2807 3.43362C16.3797 3.54087 16.4846 3.67544 16.5842 3.81509C16.6826 3.95296 16.7687 4.08578 16.8304 4.18471C16.8611 4.23386 16.8853 4.27389 16.9015 4.30104C16.9096 4.3146 16.9156 4.3249 16.9195 4.33146C16.9214 4.33474 16.9228 4.33708 16.9235 4.33843C16.9239 4.3391 16.9242 4.33952 16.9243 4.33969C16.9243 4.33977 16.9243 4.33979 16.9243 4.33974C16.9243 4.33972 16.9243 4.33968 16.9242 4.33963C16.9242 4.3396 16.9242 4.33954 16.9242 4.33953C16.9241 4.33947 16.9241 4.33941 17.5191 3.99732C18.1141 3.65524 18.114 3.65517 18.114 3.65509C18.114 3.65506 18.1139 3.65498 18.1139 3.65492C18.1138 3.6548 18.1137 3.65466 18.1136 3.6545C18.1135 3.65419 18.1132 3.65381 18.113 3.65336C18.1125 3.65246 18.1118 3.6513 18.111 3.64988C18.1093 3.64703 18.1071 3.64315 18.1042 3.6383C18.0985 3.62858 18.0905 3.61495 18.0803 3.59789C18.06 3.5638 18.031 3.51581 17.9948 3.45789C17.9229 3.34268 17.8209 3.18511 17.7017 3.01801C17.5838 2.85269 17.4417 2.6677 17.2892 2.50247C17.1475 2.34902 16.9505 2.1609 16.7175 2.04563L16.1088 3.27592ZM15.5928 3.24598C15.7483 3.19958 15.7927 3.19056 15.8376 3.19046C15.8681 3.19039 15.945 3.1949 16.1088 3.27592L16.7175 2.04563C16.4074 1.89227 16.1213 1.81721 15.8346 1.81785C15.5623 1.81844 15.3354 1.89038 15.2004 1.93064L15.5928 3.24598ZM14.4067 3.34673C14.9646 3.43415 15.3375 3.32214 15.5928 3.24598L15.2004 1.93064C15.0833 1.96559 15.0099 1.98641 14.9268 1.99779C14.8504 2.00826 14.7539 2.01177 14.6192 1.99066L14.4067 3.34673ZM13.4664 2.95954C13.5912 3.0278 13.7395 3.10924 13.8852 3.17671C14.0272 3.24247 14.2095 3.31583 14.4067 3.34673L14.6192 1.99066C14.6192 1.99067 14.6182 1.99051 14.6162 1.99008C14.6142 1.98965 14.6112 1.98897 14.6073 1.98795C14.5994 1.98587 14.5885 1.98263 14.5744 1.97773C14.5454 1.9677 14.5085 1.95272 14.4621 1.93123C14.3658 1.88658 14.2591 1.8286 14.1249 1.7552L13.4664 2.95954ZM12.8636 2.68692C12.8754 2.68739 12.9327 2.69575 13.0564 2.74944C13.1758 2.80124 13.3055 2.87158 13.4664 2.95954L14.1249 1.7552C13.9759 1.67377 13.79 1.57149 13.6028 1.49027C13.42 1.41095 13.18 1.32591 12.9187 1.31541L12.8636 2.68692ZM12.053 2.93537C12.4363 2.75966 12.642 2.67802 12.8636 2.68692L12.9187 1.31541C12.3178 1.29127 11.8184 1.53294 11.481 1.68765L12.053 2.93537ZM11.1236 3.27408C11.4905 3.19621 11.8127 3.04557 12.053 2.93537L11.481 1.68765C11.2198 1.80738 11.033 1.89012 10.8386 1.93137L11.1236 3.27408ZM9.93088 3.15558C10.1773 3.23741 10.5948 3.3863 11.1236 3.27408L10.8386 1.93137C10.7117 1.95831 10.6185 1.93761 10.3635 1.85291L9.93088 3.15558ZM9.47224 3.09067C9.53826 3.06941 9.58746 3.06797 9.64115 3.07521C9.71118 3.08465 9.78559 3.10733 9.93088 3.15558L10.3635 1.85291C10.0947 1.76367 9.63253 1.59708 9.05162 1.78408L9.47224 3.09067ZM8.80478 3.66248C8.96942 3.49354 9.10202 3.35833 9.22892 3.25109C9.35785 3.14212 9.43498 3.10266 9.47224 3.09067L9.05162 1.78408C8.76605 1.87602 8.52801 2.04629 8.3429 2.20273C8.15576 2.3609 7.97545 2.54678 7.82176 2.70449L8.80478 3.66248ZM8.11335 4.30587C8.3744 4.10601 8.61317 3.8591 8.80478 3.66248L7.82176 2.70449C7.61472 2.91694 7.44635 3.08782 7.27892 3.21601L8.11335 4.30587ZM6.97634 4.78515C7.25173 4.71938 7.70314 4.61994 8.11335 4.30587L7.27892 3.21601C7.13217 3.32836 6.96107 3.37758 6.65751 3.45008L6.97634 4.78515ZM6.55642 4.92568C6.56403 4.91839 6.58704 4.89918 6.65624 4.87317C6.73328 4.8442 6.82595 4.82107 6.97634 4.78515L6.65751 3.45008C6.41743 3.50741 5.95619 3.60012 5.60727 3.93412L6.55642 4.92568ZM6.17887 5.72785C6.31839 5.29214 6.40405 5.07153 6.55642 4.92568L5.60727 3.93412C5.15983 4.36242 4.9893 4.94183 4.87164 5.30924L6.17887 5.72785ZM5.77212 6.69816C5.97807 6.36675 6.09273 5.99684 6.17887 5.72785L4.87164 5.30924C4.77529 5.61014 4.70695 5.81167 4.60628 5.97366L5.77212 6.69816ZM4.91921 7.43001C5.04328 7.35204 5.1995 7.25442 5.33932 7.14876C5.47415 7.04686 5.64752 6.89867 5.77212 6.69816L4.60628 5.97366C4.61483 5.95992 4.60052 5.98659 4.51174 6.05368C4.42794 6.11701 4.32461 6.18252 4.18882 6.26786L4.91921 7.43001ZM4.50298 7.71784C4.48713 7.74812 4.48909 7.72692 4.58102 7.65574C4.66642 7.58962 4.77437 7.52104 4.91921 7.43001L4.18882 6.26786C4.05764 6.3503 3.88925 6.45539 3.7407 6.57041C3.5987 6.68036 3.40912 6.84775 3.28687 7.08131L4.50298 7.71784ZM4.49251 8.23548C4.46019 8.06764 4.44723 7.98758 4.44847 7.91409C4.44938 7.86051 4.4585 7.80281 4.50298 7.71784L3.28687 7.08131C2.97594 7.67535 3.08301 8.17492 3.14465 8.49503L4.49251 8.23548ZM4.54576 9.21795C4.6053 8.8001 4.53551 8.45882 4.49251 8.23548L3.14465 8.49503C3.18836 8.72201 3.21053 8.85827 3.18687 9.0243L4.54576 9.21795ZM3.91841 10.5077C4.12556 10.2592 4.45177 9.87747 4.54576 9.21795L3.18687 9.0243C3.15112 9.27512 3.0532 9.40197 2.86422 9.62859L3.91841 10.5077ZM3.69169 11.033C3.67579 10.8913 3.69813 10.8258 3.71701 10.7845C3.74664 10.7197 3.79457 10.6562 3.91841 10.5077L2.86422 9.62859C2.759 9.75477 2.58724 9.95467 2.46888 10.2133C2.33976 10.4955 2.2858 10.8132 2.32764 11.1861L3.69169 11.033ZM3.96306 11.5106C3.86713 11.3688 3.7994 11.2675 3.74945 11.1742C3.70038 11.0826 3.69264 11.0415 3.69169 11.033L2.32764 11.1861C2.35582 11.4372 2.44915 11.6537 2.53955 11.8225C2.62909 11.9896 2.73926 12.1512 2.82614 12.2797L3.96306 11.5106ZM4.47343 12.4822C4.35551 12.0805 4.11566 11.7362 3.96306 11.5106L2.82614 12.2797C3.00339 12.5417 3.10936 12.7086 3.15639 12.8688L4.47343 12.4822ZM4.44562 13.7613C4.50088 13.4708 4.61347 12.9592 4.47343 12.4822L3.15639 12.8688C3.18458 12.9648 3.17043 13.1197 3.09718 13.5048L4.44562 13.7613ZM4.39916 14.4806C4.35244 14.3761 4.3602 14.2104 4.44562 13.7613L3.09718 13.5048C3.0337 13.8386 2.89018 14.4683 3.14602 15.0407L4.39916 14.4806ZM4.85033 14.9355C4.5712 14.7167 4.45782 14.6119 4.39916 14.4806L3.14602 15.0407C3.3654 15.5316 3.7685 15.8316 4.00351 16.0158L4.85033 14.9355ZM5.58086 15.6784C5.36315 15.3287 5.04728 15.0899 4.85033 14.9355L4.00351 16.0158C4.23575 16.1979 4.34744 16.2943 4.41559 16.4038L5.58086 15.6784ZM5.95071 16.6942C5.88772 16.434 5.79473 16.0219 5.58086 15.6784L4.41559 16.4038C4.49042 16.524 4.54058 16.7031 4.61664 17.0172L5.95071 16.6942ZM6.12791 17.2381C6.12919 17.2394 6.12221 17.2325 6.10959 17.2097C6.09674 17.1866 6.08097 17.1524 6.06306 17.1028C6.02484 16.9971 5.99339 16.8704 5.95071 16.6942L4.61664 17.0172C4.65525 17.1767 4.70368 17.3799 4.77219 17.5694C4.8409 17.7595 4.94809 17.9905 5.13635 18.1872L6.12791 17.2381ZM6.80787 17.4775C6.37058 17.3855 6.21723 17.3314 6.12791 17.2381L5.13635 18.1872C5.5718 18.6421 6.18692 18.7495 6.52542 18.8207L6.80787 17.4775ZM7.86798 17.8387C7.50137 17.6162 7.08028 17.5348 6.80787 17.4775L6.52543 18.8207C6.84763 18.8885 7.02545 18.933 7.15564 19.012L7.86798 17.8387ZM8.79694 18.7805C8.59949 18.5138 8.30852 18.1062 7.86798 17.8387L7.15564 19.012C7.32662 19.1159 7.46584 19.2894 7.6937 19.5972L8.79694 18.7805ZM9.29934 19.3334C9.14963 19.242 9.02108 19.0833 8.79694 18.7805L7.6937 19.5972C7.88402 19.8543 8.16529 20.2493 8.58409 20.505L9.29934 19.3334ZM9.69802 19.2854C9.52397 19.3382 9.45144 19.3566 9.39249 19.3598C9.37128 19.3609 9.35944 19.3591 9.35143 19.3572C9.34373 19.3553 9.32715 19.3504 9.29934 19.3334L8.58409 20.505C9.21596 20.8907 9.79934 20.6891 10.0965 20.5989L9.69802 19.2854ZM10.7789 19.1616C10.3147 19.0888 9.92215 19.2174 9.69802 19.2854L10.0965 20.5989C10.3481 20.5226 10.4538 20.5 10.5664 20.5177L10.7789 19.1616ZM11.8349 19.775C11.706 19.6696 11.5493 19.541 11.3973 19.4364C11.2635 19.3443 11.0398 19.2025 10.7789 19.1616L10.5664 20.5177C10.5213 20.5106 10.5047 20.4989 10.5249 20.509C10.5423 20.5176 10.5729 20.5353 10.6191 20.5671C10.7152 20.6332 10.8254 20.7227 10.9662 20.8378L11.8349 19.775ZM12.2682 20.125C12.3218 20.1286 12.3435 20.1424 12.3226 20.133C12.3045 20.1248 12.2709 20.1068 12.2191 20.0722C12.1117 20.0005 11.9893 19.9013 11.8349 19.775L10.9662 20.8378C11.1071 20.953 11.2835 21.098 11.457 21.2138C11.6089 21.3153 11.8706 21.4741 12.1764 21.4946L12.2682 20.125ZM12.7083 19.8752C12.5654 20.0021 12.4975 20.0581 12.432 20.0934C12.3902 20.1159 12.3485 20.1304 12.2682 20.125L12.1765 21.4946C12.924 21.5447 13.3638 21.1288 13.6196 20.9017L12.7083 19.8752ZM13.7907 19.2413C13.2572 19.3765 12.918 19.689 12.7083 19.8752L13.6196 20.9017C13.8389 20.707 13.9545 20.6158 14.1278 20.5719L13.7907 19.2413ZM15.1476 19.4464C14.8871 19.3406 14.3558 19.0982 13.7907 19.2413L14.1278 20.5719C14.1378 20.5694 14.1717 20.563 14.2593 20.5843C14.356 20.6078 14.4638 20.6501 14.631 20.7181L15.1476 19.4464ZM15.7254 19.5963C15.6937 19.6053 15.6441 19.6104 15.5482 19.5885C15.4411 19.5639 15.3245 19.5182 15.1476 19.4464L14.631 20.7181C14.9164 20.834 15.4844 21.0916 16.1003 20.9167L15.7254 19.5963ZM16.0495 19.1092C15.9387 19.3062 15.8658 19.4322 15.7917 19.5245C15.7235 19.6093 15.7024 19.6028 15.7255 19.5963L16.1003 20.9167C16.4549 20.816 16.6974 20.5887 16.8618 20.384C17.0203 20.1867 17.1489 19.9544 17.2458 19.7823L16.0495 19.1092ZM16.7273 18.1769C16.4024 18.4687 16.1903 18.8591 16.0495 19.1092L17.2458 19.7823C17.4111 19.4884 17.5183 19.3114 17.6445 19.198L16.7273 18.1769ZM18.1635 17.7388C17.9896 17.7477 17.7465 17.7589 17.512 17.8061C17.2739 17.8541 16.9791 17.9507 16.7273 18.1769L17.6445 19.198C17.6421 19.2001 17.6692 19.1746 17.783 19.1517C17.9003 19.1281 18.0389 19.1196 18.2339 19.1096L18.1635 17.7388ZM20.0565 11.4011C20.0565 15.4487 16.7753 18.73 12.7276 18.73V20.1026C17.5333 20.1026 21.4292 16.2068 21.4292 11.4011H20.0565ZM12.7276 4.07211C16.7753 4.07211 20.0565 7.35339 20.0565 11.4011H21.4292C21.4292 6.59531 17.5333 2.69949 12.7276 2.69949V4.07211ZM5.39863 11.4011C5.39863 7.35339 8.67992 4.07211 12.7276 4.07211V2.69949C7.92184 2.69949 4.02602 6.59531 4.02602 11.4011H5.39863ZM12.7276 18.73C8.67992 18.73 5.39863 15.4487 5.39863 11.4011H4.02602C4.02602 16.2068 7.92184 20.1026 12.7276 20.1026V18.73ZM14.7742 2.03405L13.1524 1.36652L12.6299 2.63582L14.2517 3.30335L14.7742 2.03405ZM11.0468 1.91957L9.32764 1.75422L9.19623 3.12053L10.9154 3.28588L11.0468 1.91957ZM12.685 1.34656L10.7749 1.94811L11.1873 3.25733L13.0973 2.65578L12.685 1.34656ZM7.22156 3.26516C7.21557 3.27089 7.17653 3.30217 7.06214 3.34523C6.94948 3.38763 6.81759 3.42261 6.64607 3.46718L6.99125 4.79568C7.14808 4.75493 7.35277 4.70246 7.54568 4.62985C7.73686 4.55789 7.97237 4.44657 8.17071 4.25672L7.22156 3.26516ZM6.64607 3.46718C6.50475 3.5039 6.32521 3.54992 6.1608 3.60987C6.0021 3.66772 5.78655 3.76251 5.60727 3.93412L6.55642 4.92568C6.5306 4.9504 6.53422 4.93472 6.63095 4.89945C6.72196 4.86627 6.8341 4.83651 6.99125 4.79568L6.64607 3.46718ZM5.60727 3.93412C5.15048 4.37137 4.97575 4.96137 4.85496 5.33736L6.1618 5.75719C6.30394 5.31474 6.39371 5.08143 6.55642 4.92568L5.60727 3.93412ZM4.85496 5.33736C4.76136 5.62871 4.69486 5.82538 4.60022 5.98361L5.77819 6.68821C5.96792 6.37102 6.07805 6.01787 6.1618 5.75719L4.85496 5.33736ZM4.60022 5.98361C4.58934 6.00179 4.55392 6.04777 4.45913 6.12533C4.36481 6.20251 4.25017 6.28089 4.09943 6.38313L4.86991 7.5191C5.0089 7.42483 5.17741 7.31116 5.32836 7.18764C5.47884 7.06451 5.65082 6.90114 5.77819 6.68821L4.60022 5.98361ZM4.09943 6.38313C3.90457 6.51529 3.64314 6.69053 3.42035 6.90379L4.3695 7.89535C4.49413 7.77605 4.65531 7.66465 4.86991 7.5191L4.09943 6.38313ZM5.46032 4.13882L4.56768 6.04483L5.81073 6.62699L6.70337 4.72098L5.46032 4.13882ZM7.01603 18.9L8.44594 20.3938L9.43749 19.4446L8.00759 17.9508L7.01603 18.9ZM10.3085 20.4213L11.8581 21.3915L12.5865 20.2281L11.0368 19.2579L10.3085 20.4213Z" fill="#182230"/>
<circle cx="12.6515" cy="11.651" r="3.77649" fill="#182230"/>
</svg>
