<svg width="24" height="24" viewBox="0 0 24 24" fill="none" xmlns="http://www.w3.org/2000/svg">
<path fill-rule="evenodd" clip-rule="evenodd" d="M15.6258 1.51454C15.8941 1.03176 16.5029 0.857812 16.9856 1.12602L20.9713 3.34027C21.6062 3.69301 22 4.36225 22 5.08859V15.5002C22 16.6048 21.1046 17.5002 20 17.5002H19C17.8954 17.5002 17 16.6048 17 15.5002V11.5002H15.5C14.9477 11.5002 14.5 11.0525 14.5 10.5002C14.5 9.9479 14.9477 9.50018 15.5 9.50018H17C18.1046 9.50018 19 10.3956 19 11.5002V15.5002H20V5.08859L16.0144 2.87434C15.5316 2.60613 15.3576 1.99732 15.6258 1.51454Z" fill="#0C111D"/>
<path fill-rule="evenodd" clip-rule="evenodd" d="M13 5H7C6.44771 5 6 5.44772 6 6V21H14V6C14 5.44772 13.5523 5 13 5ZM7 3C5.34315 3 4 4.34315 4 6V23H16V6C16 4.34315 14.6569 3 13 3H7Z" fill="#0C111D"/>
<path d="M8 8C8 7.44772 8.44772 7 9 7H11C11.5523 7 12 7.44772 12 8C12 8.55228 11.5523 9 11 9H9C8.44772 9 8 8.55228 8 8Z" fill="#0C111D"/>
<path d="M3 20C3 18.8954 3.89543 18 5 18H15C16.1046 18 17 18.8954 17 20V23H3V20Z" fill="white"/>
<path fill-rule="evenodd" clip-rule="evenodd" d="M2 20C2 18.3431 3.34315 17 5 17H15C16.6569 17 18 18.3431 18 20V23C18 23.5523 17.5523 24 17 24H3C2.44772 24 2 23.5523 2 23V20ZM5 19C4.44772 19 4 19.4477 4 20V22H16V20C16 19.4477 15.5523 19 15 19H5Z" fill="#0C111D"/>
</svg>
