<svg width="24" height="24" viewBox="0 0 24 24" fill="none" xmlns="http://www.w3.org/2000/svg">
<path d="M18.198 11.181C19.0583 11.6435 19.8335 12 20.2537 12C21.4746 12 21.3063 13.9636 20.2537 13.8C19.0537 13.7489 18.6038 13.442 17.532 12.9C16.678 12.4092 15.6586 12.1026 14.679 12C13.7866 12.0595 12.9219 12.3343 12.159 12.801C11.2917 13.3162 10.8183 13.442 9.81985 13.5863C8.96741 13.8 8.69716 12.0085 9.81985 11.7864C10.5473 11.6424 10.7596 11.5946 11.403 11.226C12.3942 10.6202 13.5193 10.2678 14.679 10.2C15.8823 10.2651 17.1297 10.6233 18.198 11.181ZM18.198 14.781C17.1325 14.2108 15.885 13.8762 14.679 13.8C13.524 13.8514 12.3991 14.1851 11.403 14.772C10.763 15.1595 10.5505 15.2756 9.81985 15.4363C8.71498 15.6 9.03355 17.4 9.81985 17.2363C10.8151 17.1059 11.2343 16.9455 12.105 16.446C12.8638 15.9635 13.7827 15.6731 14.679 15.6C15.6527 15.6775 16.6717 15.9564 17.532 16.419C18.5991 16.9851 19.0484 17.3194 20.2537 17.4C21.4589 17.4806 21.4533 15.6955 20.2537 15.6C19.28 15.5224 19.0583 15.2435 18.198 14.781ZM18.279 7.61699V4.8C18.279 4.32261 18.0893 3.86477 17.7518 3.52721C17.4142 3.18964 16.9564 3 16.479 3H7.47899C7.0016 3 6.54377 3.18964 6.2062 3.52721C5.86864 3.86477 5.67899 4.32261 5.67899 4.8V7.65299C4.82024 7.29865 4.56148 7.13557 3.63356 7.09089C2.65175 7.09089 2.54981 8.84999 3.63356 8.84999C4.4499 8.91625 4.9281 9.22495 5.67899 9.55199V11.253C4.82024 10.8986 4.56148 10.7356 3.63356 10.6909C2.40169 10.6909 2.65175 12.4909 3.63356 12.4909C4.4499 12.5571 4.6851 12.7169 5.436 13.044L5.67899 13.125V14.826C5.67899 14.826 4.56148 14.1719 3.63356 14.1272C2.65175 14.1272 2.42305 15.829 3.63356 15.9272C4.4499 15.9935 4.6851 16.2899 5.436 16.617L5.67899 16.698V19.2C5.67899 19.6774 5.86864 20.1352 6.2062 20.4728C6.54377 20.8103 7.0016 21 7.47899 21H16.479C16.9564 21 17.4142 20.8103 17.7518 20.4728C18.0893 20.1352 18.279 19.6774 18.279 19.2V18.579L17.532 18.3C17.4062 18.2437 17.273 18.1886 17.1393 18.1357C16.8213 18.0097 16.479 18.2499 16.479 18.592V19.2H7.47899V4.8H16.479V6.89699C15.8972 6.70875 15.2904 6.60864 14.679 6.59999C13.524 6.65141 12.3991 6.98515 11.403 7.57199C10.763 7.95949 10.5586 8.16288 9.81985 8.28098C8.54265 8.48514 8.72443 10.2 9.81985 10.081C10.9153 9.96197 11.2883 9.74547 12.159 9.24599C12.9178 8.76347 13.7827 8.4731 14.679 8.39999C15.6527 8.47756 16.5997 8.75644 17.46 9.21899C18.5271 9.78507 19.0484 10.1194 20.2537 10.2C21.672 10.2949 21.7266 8.51231 20.2537 8.39999C19.3093 8.32798 19.1153 8.06139 18.279 7.61699Z" fill="#667085"/>
</svg>
