<svg width="25" height="24" viewBox="0 0 25 24" fill="none" xmlns="http://www.w3.org/2000/svg">
<mask id="path-1-inside-1_7791_3260" fill="white">
<path fill-rule="evenodd" clip-rule="evenodd" d="M12.5 21C17.4706 21 21.5 16.9706 21.5 12C21.5 7.02944 17.4706 3 12.5 3C7.52944 3 3.5 7.02944 3.5 12C3.5 16.9706 7.52944 21 12.5 21ZM12.5 16.5C14.9853 16.5 17 14.4853 17 12C17 9.51472 14.9853 7.5 12.5 7.5C10.0147 7.5 8 9.51472 8 12C8 14.4853 10.0147 16.5 12.5 16.5Z"/>
</mask>
<path fill-rule="evenodd" clip-rule="evenodd" d="M12.5 21C17.4706 21 21.5 16.9706 21.5 12C21.5 7.02944 17.4706 3 12.5 3C7.52944 3 3.5 7.02944 3.5 12C3.5 16.9706 7.52944 21 12.5 21ZM12.5 16.5C14.9853 16.5 17 14.4853 17 12C17 9.51472 14.9853 7.5 12.5 7.5C10.0147 7.5 8 9.51472 8 12C8 14.4853 10.0147 16.5 12.5 16.5Z" fill="#182230"/>
<path d="M20.255 12C20.255 16.283 16.783 19.755 12.5 19.755V22.245C18.1582 22.245 22.745 17.6582 22.745 12H20.255ZM12.5 4.245C16.783 4.245 20.255 7.71703 20.255 12H22.745C22.745 6.34184 18.1582 1.755 12.5 1.755V4.245ZM4.745 12C4.745 7.71703 8.21703 4.245 12.5 4.245V1.755C6.84184 1.755 2.255 6.34184 2.255 12H4.745ZM12.5 19.755C8.21703 19.755 4.745 16.283 4.745 12H2.255C2.255 17.6582 6.84184 22.245 12.5 22.245V19.755ZM15.755 12C15.755 13.7977 14.2977 15.255 12.5 15.255V17.745C15.6729 17.745 18.245 15.1729 18.245 12H15.755ZM12.5 8.745C14.2977 8.745 15.755 10.2023 15.755 12H18.245C18.245 8.82712 15.6729 6.255 12.5 6.255V8.745ZM9.245 12C9.245 10.2023 10.7023 8.745 12.5 8.745V6.255C9.32712 6.255 6.755 8.82712 6.755 12H9.245ZM12.5 15.255C10.7023 15.255 9.245 13.7977 9.245 12H6.755C6.755 15.1729 9.32712 17.745 12.5 17.745V15.255Z" fill="#182230" mask="url(#path-1-inside-1_7791_3260)"/>
</svg>
