<svg width="25" height="24" viewBox="0 0 25 24" fill="none" xmlns="http://www.w3.org/2000/svg">
<path d="M7.94922 16.3632C7.28877 16.4409 6.83353 16.4421 6.45643 16.3352C5.04847 15.9363 3.68378 15.1822 2.37489 15.8366V15.8366" stroke="#182230" stroke-width="1.85068" stroke-linecap="round"/>
<path d="M12.4451 18.5833C13.6563 18.5833 14.638 17.6014 14.638 16.3901C14.638 15.4717 14.0729 14.6862 13.2717 14.3595V12.6421H16.0799C16.5366 12.6421 16.9066 12.2721 16.9066 11.8154C16.9066 11.3587 16.5366 10.9887 16.0799 10.9887H13.2717V9.58136H16.0799C16.5366 9.58136 16.9066 9.21132 16.9066 8.75463C16.9066 8.29794 16.5366 7.92789 16.0799 7.92789H13.2717V6.52035H16.0799C16.5366 6.52035 16.9066 6.15031 16.9066 5.69362C16.9066 5.23693 16.5366 4.86689 16.0799 4.86689H13.2717V3.81154C13.2717 3.35485 12.9017 2.9848 12.4451 2.9848C11.9885 2.9848 11.6184 3.35485 11.6184 3.81154V14.3595C10.8171 14.6862 10.252 15.4717 10.252 16.3901C10.2518 17.6014 11.2339 18.5833 12.4451 18.5833Z" fill="#182230"/>
<path d="M17.4258 16.3632C18.0862 16.4409 18.5415 16.4421 18.9186 16.3352C20.3265 15.9363 21.6912 15.1822 23.0001 15.8366V15.8366" stroke="#182230" stroke-width="1.85068" stroke-linecap="round"/>
<path d="M2.93262 20.2961L3.26687 20.1847C4.11614 19.9016 5.04671 20.0037 5.81434 20.4643L6.07779 20.6224C6.88676 21.1078 7.89739 21.1078 8.70636 20.6224L8.98425 20.4556C9.70683 20.0221 10.62 20.0692 11.2941 20.5748V20.5748C11.9682 21.0804 12.8814 21.1275 13.604 20.694L13.9434 20.4903C14.7236 20.0221 15.689 19.9851 16.5028 20.392L17.5034 20.8923C18.1392 21.2102 18.8999 21.1416 19.4685 20.7151L19.5091 20.6846C20.2329 20.1418 21.2456 20.2138 21.8853 20.8535V20.8535" stroke="#182230" stroke-width="1.85068" stroke-linecap="round"/>
</svg>
